<?xml version="1.0" encoding="utf-8" ?>
<svg xmlns="http://www.w3.org/2000/svg" xmlns:xlink="http://www.w3.org/1999/xlink" width="686" height="343">
	<path fill="#212529" transform="scale(0.670827 0.670827)" d="M192.446 162.519C233.334 84.1264 302.582 34.1793 393.042 28.2102C422.567 25.1204 465.714 34.4588 492.669 46.7244C502.53 51.2116 549.53 76.5028 553.414 86.8615C557.167 85.9146 560.941 84.0305 564.568 82.6169C600.546 68.5951 643.845 64.8059 681.376 73.4187C685.681 72.3781 695.942 65.2579 701.364 62.9193C841.225 2.60383 990.081 110.452 990.014 258.352C989.964 367.12 902.266 463.895 794.503 476.264C778.63 478.085 762.38 477.452 746.426 477.454L675.375 477.435L235.276 477.442C212.092 477.442 188.211 478.795 165.286 474.818C96.1781 462.829 41.5946 403.127 34.7613 333.406C26.9129 253.328 82.8807 179.015 162.3 165.287C172.38 163.545 182.333 163.506 192.446 162.519ZM397.293 89.7115C327.414 93.8504 266.665 137.38 243.56 204.491C230.647 241.999 238.294 232.426 208.283 227.336C103.413 209.551 58.1556 350.696 146.279 398.444C167.525 409.956 186.142 408.263 209.248 408.269C254.069 408.169 299.055 407.423 343.857 408.349C305.349 327.994 347.411 238.207 434.984 217.216C445.366 181.144 467.293 143.735 497.699 120.673C471.267 100.619 430.66 86.6862 397.293 89.7115ZM784.258 123.75C785.074 126.54 794.7 134.645 797.162 137.346C805.22 146.186 837.582 191.145 836.587 202.95C865.452 215.376 895.89 242.526 911.043 270.251C914.116 265.857 911.409 238.714 910.307 232.507C899.874 173.74 845.286 123.187 784.258 123.75ZM636.246 144.75C573.057 146.913 514.118 192.103 506.369 256.405C504.76 269.759 506.201 292.361 486.876 292.988C481.599 293.159 475.968 291.022 470.689 290.393C395.406 281.42 380.37 391.386 449.835 406.776C462.844 409.657 492.015 408.229 506.465 408.224L611.875 408.232L761.962 408.238C788.171 408.233 807.88 408.126 827.785 388.294C863.811 352.4 849.866 286.769 800.918 272.1C793.938 270.008 779.021 270.505 774.417 265.441C771.09 261.782 766.698 237.932 764.214 230.993C745.363 178.332 691.999 143.066 636.246 144.75Z"/>
</svg>
